<?xml version="1.0" encoding="utf-8"?>
<!-- Generator: Adobe Illustrator 24.1.2, SVG Export Plug-In . SVG Version: 6.00 Build 0)  -->
<svg version="1.1" id="Layer_1" xmlns="http://www.w3.org/2000/svg" xmlns:xlink="http://www.w3.org/1999/xlink" x="0px" y="0px"
	 viewBox="0 0 24 24" style="enable-background:new 0 0 24 24;" xml:space="preserve">
<style type="text/css">
	.st0{fill:#F2E7E7;}
	.st1{fill:#261F1F;}
</style>
<g>
	<circle class="st0" cx="12" cy="12" r="12"/>
	<path class="st1" d="M14.3,15.6c0.4,0.4,0.8,1,0.8,2v3c0,0.2,0.9,0.6,0.2,0.4c-1.3-0.3-2.1,0.7-3.9,0.6c0,0-1.7-0.1-2.3-1.1
		c-0.4-0.6-0.2-1.3,0-1.8c-3.3,0.6-4.1-1.5-4.1-1.5c-0.5-1.3-1.3-1.6-1.3-1.6c-1.2-0.6,0-0.6,0-0.6c1.2,0.1,1.8,1.1,1.8,1.1
		c1.1,1.6,2.8,1.2,3.6,0.9c0.1-0.7,0.4-1.2,0.8-1.5c-2.7-0.3-5.6-1.2-5.6-5.4c0-1.2,0.5-2.2,1.2-2.9C5.5,7,5.1,5.9,5.8,4.4
		c0,0,1-0.3,3.3,1.1c1-0.3,2-0.4,3-0.4c1,0,2,0.1,3,0.4c2.3-1.5,3.3-1.1,3.3-1.1c0.6,1.5,0.2,2.6,0.1,2.9c0.8,0.7,1.2,1.7,1.2,2.9
		C19.9,14.4,17,15.3,14.3,15.6z"/>
</g>
</svg>
