<?xml version="1.0" encoding="utf-8"?>
<!-- Generator: Adobe Illustrator 24.1.2, SVG Export Plug-In . SVG Version: 6.00 Build 0)  -->
<svg version="1.1" id="Layer_1" xmlns="http://www.w3.org/2000/svg" xmlns:xlink="http://www.w3.org/1999/xlink" x="0px" y="0px"
	 viewBox="0 0 1280 1138" style="enable-background:new 0 0 1280 1138;" xml:space="preserve">
<style type="text/css">
	.st0{fill:#E4E1D3;}
</style>
<g transform="translate(0.000000,1138.000000) scale(0.100000,-0.100000)">
	<path class="st0" d="M7035,11369c-366-38-734-200-1065-467c-108-88-297-272-388-380l-62-73v-143v-144l54-41l54-42l213,102
		c469,223,843,377,1131,465c126,39,289,74,341,74c28,0,41,8,76,50l42,50l-26,97c-44,165-96,324-127,395l-31,68l-66-1
		C7145,11378,7079,11374,7035,11369z"/>
	<path class="st0" d="M7942,11179c-21-48-22-68-22-314v-263l68-6c37-4,87-10,112-13l45-6l-70-22c-146-45-274-125-409-255
		c-132-127-277-328-362-502l-28-57l-26,68c-90,232-296,380-573,410c-226,25-654-51-852-151c-213-109-352-300-372-513l-5-60l-97-1
		c-119-1-199-21-318-79c-160-79-311-241-409-440l-37-74l-29,24c-105,89-328,6-623-232c-193-155-336-329-435-528
		c-77-154-100-239-107-385c-6-131,8-208,56-296l28-52l-38-6c-110-18-261-106-351-205c-106-118-172-255-237-496
		c-69-256-84-345-85-495c-1-106,3-146,17-187c23-65,85-136,153-174l53-30l-48-73c-26-40-62-102-81-138c-42-80-48-83-211-68
		c-116,10-226,34-321,70c-81,31-81,31-69,76c26,92,3,230-48,296c-19,23-19,24,20,88c92,152,134,313,134,515c0,117-4,152-22,210
		c-46,146-127,209-295,230l-47,6l-65,122c-117,222-179,405-212,632c-21,148-21,522,1,615c33,143,56,267,62,337c8,95-14,269-38,304
		c-23,32-122,78-187,86c-175,20-377-170-487-457c-34-90-101-348-116-445c-16-111-14-397,5-529c9-60,16-115,16-122c0-8-19-4-58,12
		c-72,29-182,47-237,38c-23-3-66-19-94-35c-61-35-118-115-147-208c-19-58-20-59-49-53c-138,31-260-37-325-182
		c-126-278-74-697,120-987c67-100,204-230,280-267c62-29,66-33,94-98c73-168,266-290,493-312l68-7l19-55c13-34,36-71,64-98
		c52-53,180-115,270-133c138-26,328,10,454,87l57,35l52-27c160-80,364-137,563-156l123-11l16-94c18-110,70-226,141-316
		c113-140,471-379,674-449c54-18,88-23,173-23h105l38-120c96-305,231-576,393-793c82-109,214-244,313-319c111-84,297-176,425-209
		c137-36,375-45,526-19c173,29,332,79,511,162l76,35l99-55c54-30,127-67,163-82c513-216,951-164,1293,155l62,57l100,6
		c129,8,278,46,385,98c154,76,285,233,320,384c7,28,13,55,15,62c3,7,35,0,97-24c591-224,1189-292,1580-178l82,23l118-39
		c316-106,625-126,834-55c38,13,132,55,209,94l140,70l40-22c33-17,57-21,135-21c84,0,102,3,155,29c39,19,87,56,136,105
		c94,94,151,206,205,398c31,108,42,134,58,139c56,17,172,82,229,129c98,81,165,183,203,310c27,87,24,273-5,379
		c-99,368-429,737-833,932c-54,26-98,52-98,58c1,6,7,38,15,71c20,80,19,295-1,410c-18,106-79,297-124,386c-101,201-247,353-425,446
		c-79,40-108,51-193,73c-39,10-44,15-72,77c-33,72-55,101-83,112c-15,6-12,13,23,60c137,182,186,435,131,666
		c-25,104-101,270-165,359c-25,35-81,97-127,140c-65,61-103,87-183,126c-123,59-213,80-343,80c-143,0-262-35-359-105
		c-20-15-20-13,5,57c35,101,37,269,4,373c-32,101-87,189-173,276c-180,182-383,278-560,265c-41-3-86-8-100-11l-25-6l-1,103
		c-2,173-64,320-187,448c-31,33-56,60-54,60s32-12,68-26c113-46,311-153,397-214c46-33,87-60,92-60s32,14,60,32c40,25,50,36,46,52
		c-2,12-10,64-17,116l-12,95l-71,74c-285,297-749,558-1242,699C7947,11240,7967,11240,7942,11179z M11723,5530
		c130-57,277-159,388-269c174-174,271-357,271-509c0-70-14-107-54-149l-30-31l-40,79c-42,84-112,165-168,194c-50,26-150,32-191,11
		c-18-9-34-14-37-12c-2,3-10,36-17,75c-31,162-92,265-247,419c-79,78-118,124-118,138c0,29,106,105,135,97
		C11626,5570,11675,5551,11723,5530z"/>
	<path class="st0" d="M8785,2645c-179-33-382-135-418-210c-20-43-21-100-3-178l13-57l-33-43c-58-72-119-255-145-436
		c-18-129-7-353,24-473c35-135,44-149,97-169c25-10,79-30,120-46c41-15,113-52,160-81c209-131,347-260,480-446
		c123-173,173-210,319-241c91-19,200-19,318,0c114,18,206,49,343,113c88,41,115,60,162,111c186,200,257,523,171,773
		c-97,281-361,468-662,468c-117,0-164,12-180,46c-6,13-23,26-38,30s-34,11-40,16c-22,17-43,70-43,107c-1,92-44,195-108,260l-44,43
		l19,41c28,64,24,151-9,209C9206,2620,9005,2686,8785,2645z"/>
	<path class="st0" d="M6681,2259c-284-35-481-166-481-320c0-29,28-129,40-144c11-14-52-316-83-397c-13-35-36-103-51-153
		c-15-49-41-133-57-185c-109-350-69-576,164-925c33-49,60-91,61-92s55-9,121-19c95-14,182-18,420-18c278,0,312,2,460,27
		c236,40,216,31,284,119c137,180,251,483,251,673c0,92-28,206-67,275c-41,72-122,176-230,296c-143,159-188,222-259,355l-63,118
		l20,47c59,133-27,285-191,335C6973,2266,6772,2271,6681,2259z"/>
</g>
</svg>
