<?xml version="1.0" encoding="utf-8"?>
<!-- Generator: Adobe Illustrator 24.1.2, SVG Export Plug-In . SVG Version: 6.00 Build 0)  -->
<svg version="1.1" id="Layer_1" xmlns="http://www.w3.org/2000/svg" xmlns:xlink="http://www.w3.org/1999/xlink" x="0px" y="0px"
	 viewBox="0 0 512 512" style="enable-background:new 0 0 512 512;" xml:space="preserve">
<style type="text/css">
	.st0{fill:#8C8783;}
	.st1{fill:#313334;}
	.st2{fill:#EBE5DE;}
</style>
<g>
	<g>
		<path class="st0" d="M487.8,413c-28.5-27.2-113.9-108.1-169.1-155.6c0,0,0,0-0.1,0C373.8,305,459.3,386,487.8,413.2
			c0.3-1.2,0.7-2.5,0.9-3.8C488.6,410.7,488.2,411.8,487.8,413z M20.8,103C20.8,103,20.8,103,20.8,103
			c28.4,26,113.6,104.1,169,154.5c0,0,0.1-0.1,0.1-0.1C134.5,207,49,128.8,20.8,103z"/>
		<path class="st1" d="M467.5,66.2H41c-23.6,0-42.7,19.1-42.7,42.7v298.7c0,23.5,19.1,42.7,42.7,42.7h426.7
			c23.5,0,42.7-19.1,42.7-42.7V108.8C510.3,85.3,491.2,66.2,467.5,66.2z M38.7,87.8c0.2,0,0.4-0.1,0.6-0.1c0.2,0,0.4-0.1,0.6-0.1
			c0.2,0,0.4-0.1,0.6-0.1c0.2,0,0.3,0,0.5,0h426.7c0.2,0,0.4,0,0.6,0c1.1,0.1,2,0.4,3,0.7c0.1,0,0.3,0.1,0.4,0.1
			c0.2,0,0.3,0.1,0.5,0.1c-37,33.8-159.5,145.9-202.3,184.5c-3.3,3-8.8,6.6-15.5,6.6s-12.1-3.6-15.5-6.6
			C196,234.3,73.5,122.2,36.5,88.3C37.2,88.2,37.9,88,38.7,87.8z M19.5,407.5V108.8c0-2.1,0.6-4,1.2-5.9c0,0,0,0,0.1,0.1
			c0,0,0-0.1,0-0.1C49,128.8,134.5,207,190,257.3c0,0-0.1,0.1-0.1,0.1l0,0c-2.3,1.9-4.6,3.9-6.9,6c-3.9,3.4-8,7-12.1,10.6
			c-20,17.7-42.2,37.9-63.5,57.6c-4.6,4.2-9.1,8.4-13.5,12.6c-0.5,0.5-1,0.9-1.5,1.4c-2,1.8-3.9,3.7-5.9,5.5c0,0,0,0,0,0
			c-1.5,1.4-2.9,2.7-4.3,4c-1,0.9-1.9,1.8-2.9,2.7c-1.4,1.3-2.8,2.6-4.2,4c0,0,0,0,0,0c-0.7,0.7-1.4,1.3-2.1,2
			c-0.4,0.4-0.9,0.8-1.3,1.3c-1.2,1.1-2.3,2.2-3.4,3.2c-1.3,1.3-2.7,2.5-4,3.8c-3.8,3.5-7.4,7-10.9,10.2
			c-13.7,12.9-25,23.7-32.5,30.8C20.3,411.3,19.5,409.5,19.5,407.5z M467.5,428.8H41c-1.7,0-3.2-0.6-4.8-1
			c29.4-28.1,115.5-109.6,169.7-156c7.1,6.4,13.5,12.3,18.6,16.9c8.8,7.9,19.1,12.1,29.8,12.1s21-4.2,29.8-12.1
			c5.1-4.6,11.6-10.4,18.6-16.9c54.3,46.4,140.3,127.9,169.7,156C470.8,428.3,469.3,428.8,467.5,428.8z M489,407.5
			c0,0.2,0,0.4,0,0.6c0,0.2,0,0.4-0.1,0.7c0,0.2,0,0.4-0.1,0.6c-0.2,1.3-0.6,2.5-0.9,3.8C459.3,386,373.8,305,318.7,257.5
			c0,0,0,0,0.1,0c0,0,0,0-0.1-0.1C374,207,459.5,128.8,487.8,102.8c0.5,1.7,1.1,3.4,1.2,5.2c0,0.3,0,0.5,0,0.8V407.5z"/>
		<path class="st2" d="M472.3,427.8c-1.6,0.4-3.1,1-4.8,1H41c-1.7,0-3.2-0.6-4.8-1c29.4-28.1,115.5-109.6,169.7-156
			c7.1,6.4,13.5,12.3,18.6,16.9c8.8,7.9,19.1,12.1,29.8,12.1s21-4.2,29.8-12.1c5.1-4.6,11.6-10.4,18.6-16.9
			C357,318.3,443,399.8,472.3,427.8z"/>
		<path class="st2" d="M489,108.8v298.7c0,0.2,0,0.4,0,0.6c0,0.2,0,0.4-0.1,0.7c0,0.2,0,0.4-0.1,0.6c-0.2,1.3-0.6,2.5-0.9,3.8
			C459.3,386,373.8,305,318.7,257.5c0,0,0,0,0.1,0c55.4-50.4,140.8-128.6,169-154.5c0.4,1.7,1,3.3,1.2,5.1
			C488.9,108.3,489,108.6,489,108.8z"/>
		<path class="st2" d="M472,88.3c-37,33.8-159.5,145.9-202.3,184.5c-3.3,3-8.8,6.6-15.5,6.6s-12.1-3.6-15.5-6.6
			C196,234.3,73.5,122.2,36.5,88.3c0.8-0.1,1.5-0.4,2.2-0.6c0.2,0,0.4-0.1,0.6-0.1c0.2,0,0.4-0.1,0.6-0.1c0.2,0,0.4-0.1,0.6-0.1
			c0.2,0,0.3,0,0.5,0h426.7c0.2,0,0.4,0,0.6,0c1,0.1,2,0.4,3,0.7c0.1,0,0.3,0.1,0.4,0.1C471.7,88.3,471.9,88.3,472,88.3z"/>
		<path class="st2" d="M190,257.3c0,0-0.1,0.1-0.1,0.1c-2.3,1.9-4.6,3.9-6.9,6c-3.9,3.4-8,7-12.1,10.6c-20,17.7-42.2,37.9-63.5,57.6
			c-4.6,4.2-9.1,8.4-13.5,12.6c-0.5,0.5-1,0.9-1.5,1.4c-2,1.8-3.9,3.7-5.9,5.5c0,0,0,0,0,0c-1.5,1.3-2.9,2.7-4.3,4
			c-1,0.9-1.9,1.8-2.9,2.7c-1.4,1.3-2.8,2.6-4.2,4c0,0,0,0,0,0c-0.7,0.7-1.4,1.3-2.1,2c-0.4,0.4-0.9,0.8-1.3,1.3
			c-1.2,1.1-2.3,2.2-3.4,3.2c-1.3,1.3-2.7,2.5-4,3.8c-3.8,3.5-7.4,7-10.9,10.2c-13.7,12.9-25,23.7-32.5,30.8
			c-0.5-1.8-1.1-3.6-1.1-5.6V108.8c0-2.1,0.6-3.9,1.2-5.8c0,0,0-0.1,0-0.1C49,128.8,134.5,207,190,257.3z"/>
	</g>
</g>
</svg>
